<svg width="200" height="200" viewBox="0 0 200 200" fill="none" xmlns="http://www.w3.org/2000/svg">
<rect width="200" height="200" rx="16" fill="white"/>
<path d="M70.0418 145.975V106.65H143.5C145.292 106.65 152.458 104.863 152.458 95.925C152.458 86.9875 145.292 85.2 143.5 85.2H70.0418V53.025H154.25C156.042 53.025 165 51.2375 165 40.5125C165 29.7875 156.042 28 154.25 28H57.5001C53.9167 28 46.4206 28.3288 41.3751 33.3626C36.3296 38.3964 36.0001 45.8903 36.0001 49.45C36.0003 56.6001 35.9999 142.4 36.0001 149.55C36.0001 153.125 36.3295 160.604 41.375 165.638C46.4206 170.671 53.9167 171 57.5001 171H154.25C156.042 171 165 169.212 165 158.488C165 147.762 156.042 145.975 154.25 145.975H70.0418Z" fill="black" stroke="black"/>
</svg>
